<svg width="23" height="25" viewBox="0 0 23 25" fill="none" xmlns="http://www.w3.org/2000/svg">
<path d="M15.91 0.416674C16.423 0.415469 16.8286 0.81402 16.8298 1.34542L16.831 2.25122C20.1595 2.51209 22.3583 4.7802 22.3619 8.25846L22.375 18.4396C22.3798 22.2319 19.9973 24.5652 16.1784 24.5712L6.8502 24.5833C3.0552 24.5882 0.642911 22.1993 0.638139 18.3961L0.625008 8.33455C0.620244 4.83334 2.74144 2.57126 6.06997 2.26571L6.06877 1.35991C6.06758 0.828513 6.46128 0.428755 6.98621 0.428755C7.51114 0.427547 7.90483 0.826097 7.90602 1.3575L7.90722 2.20291L14.9938 2.19325L14.9926 1.34784C14.9914 0.816435 15.3851 0.417885 15.91 0.416674ZM16.3968 17.5652H16.3848C15.836 17.5785 15.3958 18.0386 15.4077 18.5942C15.4089 19.1498 15.8515 19.6075 16.4003 19.6196C16.9599 19.6184 17.4132 19.1582 17.412 18.5906C17.412 18.0229 16.9575 17.5652 16.3968 17.5652ZM6.56626 17.5664C6.01747 17.5906 5.58798 18.0507 5.58917 18.6063C5.61423 19.1618 6.06758 19.5966 6.61637 19.5713C7.15442 19.5471 7.58272 19.087 7.55766 18.5314C7.54573 17.9879 7.10312 17.5652 6.56626 17.5664ZM11.4815 17.5604C10.9327 17.5857 10.5044 18.0447 10.5044 18.6002C10.5295 19.1558 10.9828 19.5894 11.5316 19.5652C12.0685 19.5399 12.498 19.0809 12.4729 18.5242C12.461 17.9819 12.0184 17.5592 11.4815 17.5604ZM6.5603 13.2186C6.01151 13.2428 5.58321 13.7029 5.5844 14.2585C5.60827 14.814 6.06281 15.2488 6.6116 15.2234C7.14846 15.1993 7.57675 14.7391 7.5517 14.1836C7.53977 13.6401 7.09835 13.2174 6.5603 13.2186ZM11.4767 13.1763C10.9279 13.2005 10.4985 13.6606 10.4997 14.2162C10.5235 14.7717 10.9781 15.2053 11.5268 15.1812C12.0637 15.1558 12.492 14.6969 12.4681 14.1413C12.455 13.5978 12.0136 13.1751 11.4767 13.1763ZM16.392 13.1824C15.8432 13.1944 15.4137 13.6413 15.4149 14.1969V14.2101C15.4268 14.7657 15.8802 15.1872 16.4302 15.1751C16.967 15.1618 17.3953 14.7017 17.3834 14.1461C17.3583 13.6147 16.9277 13.1812 16.392 13.1824ZM14.9962 4.05315L7.9096 4.06281L7.9108 5.03986C7.9108 5.56039 7.51829 5.97102 6.99336 5.97102C6.46843 5.97223 6.07354 5.56281 6.07354 5.04228L6.07235 4.11233C3.74596 4.34542 2.45869 5.71257 2.46226 8.33213L2.46346 8.70773L20.5258 8.68358V8.26087C20.4745 5.66426 19.1717 4.30194 16.8334 4.09904L16.8346 5.02899C16.8346 5.54832 16.4302 5.96015 15.9172 5.96015C15.3922 5.96136 14.9973 5.55073 14.9973 5.03141L14.9962 4.05315Z" fill="white"/>
</svg>
