<svg width="42" height="42" viewBox="0 0 42 42" fill="none" xmlns="http://www.w3.org/2000/svg">
<circle cx="20.7423" cy="21.2227" r="19.7007" stroke="white" stroke-width="2"/>
<path d="M28.4338 23.2691C28.3629 23.3419 28.0952 23.653 27.8459 23.9089C26.3841 25.5186 22.5709 28.1532 20.575 28.9574C20.2719 29.0866 19.5056 29.3601 19.0961 29.3777C18.7038 29.3777 18.3298 29.2874 17.9729 29.1042C17.5281 28.8482 17.1712 28.4455 16.9756 27.97C16.8497 27.6401 16.6542 26.6527 16.6542 26.6352C16.4586 25.555 16.3511 23.7998 16.3511 21.8602C16.3511 20.0122 16.4586 18.3285 16.6187 17.232C16.6371 17.2144 16.8326 15.9875 17.0465 15.5672C17.4388 14.7994 18.2052 14.3226 19.0252 14.3226H19.0961C19.6302 14.3414 20.7534 14.8182 20.7534 14.8357C22.6417 15.6412 26.367 18.1466 27.8642 19.8114C27.8642 19.8114 28.2859 20.2393 28.4692 20.5065C28.7552 20.8904 28.897 21.3659 28.897 21.8414C28.897 22.3721 28.7369 22.8664 28.4338 23.2691Z" fill="white"/>
</svg>
