<svg width="22" height="18" viewBox="0 0 22 18" fill="none" xmlns="http://www.w3.org/2000/svg">
<path d="M3.4375 0.75C2.89049 0.75 2.36589 0.967299 1.97909 1.35409C1.5923 1.74089 1.375 2.26549 1.375 2.8125V14.5H20.625V2.8125C20.625 2.26549 20.4077 1.74089 20.0209 1.35409C19.6341 0.967299 19.1095 0.75 18.5625 0.75H3.4375ZM0 15.1875H22C22 15.7345 21.7827 16.2591 21.3959 16.6459C21.0091 17.0327 20.4845 17.25 19.9375 17.25H2.0625C1.51549 17.25 0.990886 17.0327 0.604092 16.6459C0.217298 16.2591 0 15.7345 0 15.1875H0Z" fill="white"/>
</svg>
