<svg width="35" height="35" viewBox="0 0 35 35" fill="none" xmlns="http://www.w3.org/2000/svg">
<path d="M23.9422 3.30417C28.7481 3.30417 31.9661 6.67821 31.9661 11.6967V23.2805C31.9661 28.2834 28.7481 31.6575 23.9422 31.6575H11.651C6.84513 31.6575 3.61285 28.2834 3.61285 23.2805V11.6967C3.61285 6.67821 6.84513 3.30417 11.651 3.30417H23.9422ZM23.7153 13.2278C23.2333 12.7458 22.4394 12.7458 21.9574 13.2278L16.1025 19.0828L13.6216 16.6019C13.1396 16.1199 12.3457 16.1199 11.8637 16.6019C11.3817 17.0839 11.3817 17.8636 11.8637 18.3598L15.2377 21.7196C15.4787 21.9606 15.7906 22.0741 16.1025 22.0741C16.4285 22.0741 16.7404 21.9606 16.9814 21.7196L23.7153 14.9857C24.1973 14.5037 24.1973 13.724 23.7153 13.2278Z" fill="#058E6E"/>
</svg>
