<svg width="12" height="15" viewBox="0 0 12 15" fill="none" xmlns="http://www.w3.org/2000/svg">
<path d="M11.4026 8.44401C11.3367 8.51168 11.0878 8.80101 10.8559 9.03901C9.49661 10.5358 5.95058 12.9858 4.0946 13.7337C3.81273 13.8538 3.10012 14.1082 2.71937 14.1245C2.35454 14.1245 2.00676 14.0405 1.67489 13.8702C1.26118 13.6322 0.929311 13.2577 0.747463 12.8155C0.630399 12.5087 0.448551 11.5905 0.448551 11.5742C0.266703 10.5697 0.166687 8.93751 0.166687 7.13385C0.166687 5.41535 0.266703 3.84968 0.415591 2.83001C0.432639 2.81368 0.614487 1.67268 0.813383 1.28185C1.17821 0.567845 1.89083 0.124512 2.65345 0.124512H2.71937C3.21605 0.142013 4.26053 0.585346 4.26053 0.601679C6.0165 1.35068 9.4807 3.68051 10.873 5.22868C10.873 5.22868 11.2651 5.62651 11.4356 5.87501C11.7015 6.23201 11.8334 6.67418 11.8334 7.11635C11.8334 7.60985 11.6845 8.06951 11.4026 8.44401Z" fill="#FB9C46"/>
</svg>
